<svg width="32" height="32" viewBox="0 0 32 32" fill="none" xmlns="http://www.w3.org/2000/svg">
<g clip-path="url(#clip0_2027_12921)">
<path d="M0.755975 18.6502C1.21896 18.0445 1.67393 17.4417 2.32777 17.0051C2.66832 16.7777 2.92273 16.4216 3.2665 16.116C3.35288 16.0556 3.38881 16.0028 3.42474 15.95C3.42474 15.95 3.42717 15.9593 3.44371 15.9541C3.47453 15.9245 3.48883 15.9 3.50311 15.8756C3.50311 15.8756 3.50401 15.8864 3.51939 15.8799C3.54904 15.8493 3.56332 15.8252 3.5776 15.8012C3.5776 15.8012 3.57819 15.8117 3.5941 15.806C3.62407 15.776 3.63814 15.7518 3.6522 15.7276C3.6522 15.7276 3.652 15.7358 3.67345 15.7368C3.72641 15.7045 3.75793 15.6712 3.78945 15.6379C3.78945 15.6379 3.80002 15.6481 3.81471 15.6468C3.84325 15.6219 3.85709 15.5985 3.87094 15.575C3.87094 15.575 3.86463 15.5868 3.88482 15.5766C3.92016 15.5199 3.93532 15.4733 3.95048 15.4266C3.94896 15.402 3.95882 15.3833 4.01749 15.3611C4.06997 15.3274 4.08504 15.3033 4.1001 15.2791C4.1001 15.2791 4.09973 15.2903 4.11613 15.2849C4.14615 15.2542 4.15978 15.229 4.17341 15.2037C4.17341 15.2037 4.17575 15.2153 4.19195 15.2076C4.22114 15.1716 4.23413 15.1433 4.24711 15.1151C4.66153 14.5602 5.14238 14.0443 5.32811 13.3015C5.43838 13.0018 5.56624 12.7387 5.58222 12.4691C5.67654 10.8783 5.74483 9.28598 5.84087 7.67445C5.94286 7.38888 6.02329 7.1222 6.10955 6.85742C6.20642 6.56008 6.30857 6.26446 6.40842 5.9681C6.40842 5.9681 6.41045 5.97595 6.42849 5.97015C6.45445 5.93632 6.46238 5.90829 6.47031 5.88027C6.47031 5.88027 6.46485 5.89336 6.4886 5.88898C6.5407 5.80885 6.56904 5.73311 6.59739 5.65736C6.59739 5.65736 6.60016 5.64897 6.62915 5.6559C6.69505 5.58722 6.73195 5.5116 6.76886 5.43598C6.76886 5.43598 6.77055 5.4479 6.78692 5.44446C6.82167 5.40519 6.84006 5.36936 6.85845 5.33353C7.53462 4.43171 8.49899 3.90859 9.47556 3.43233C9.90575 3.22253 10.4254 3.19562 10.9378 3.0996C11.2119 3.12869 11.4531 3.16274 11.693 3.15501C12.175 3.13949 12.6562 3.10118 13.1378 3.07227C13.9542 3.12549 14.6883 3.47248 15.4425 3.73772C15.6945 3.82638 15.9052 4.03498 16.1318 4.19296C16.6489 4.55341 17.075 4.99804 17.3861 5.6052C17.4477 5.71063 17.5037 5.76356 17.5597 5.8165C17.5597 5.8165 17.5494 5.82267 17.5427 5.8435C17.5683 5.89878 17.6007 5.93322 17.633 5.96766C17.633 5.96766 17.6239 5.973 17.6169 5.99348C17.6381 6.05171 17.6663 6.08946 17.6945 6.12721C17.6945 6.12721 17.6838 6.12673 17.6809 6.14966C17.7357 6.27893 17.7935 6.38527 17.8512 6.49161C17.8512 6.49161 17.8453 6.49846 17.8386 6.52543C17.9062 6.85762 17.9805 7.16284 18.0562 7.49618C18.0694 7.63214 18.0914 7.74004 18.0906 7.84779C18.0892 8.06601 18.0505 8.28667 18.0723 8.50177C18.1084 8.85766 18.1996 9.20827 18.2301 9.56431C18.2518 9.81735 18.2143 10.0758 18.1989 10.3316C18.1837 10.5842 18.2047 10.849 18.1341 11.0859C18.0511 11.3643 18.1053 11.5796 18.271 11.8208C18.3792 12.2493 18.4869 12.6489 18.5945 13.0485C18.5945 13.0485 18.5858 13.0517 18.5831 13.0728C18.6082 13.1309 18.636 13.168 18.6638 13.2051C18.6638 13.2051 18.6531 13.2044 18.6504 13.2264C18.7177 13.3573 18.7877 13.4661 18.8577 13.575C19.2539 14.3418 19.9361 14.8378 20.5492 15.3013C18.7588 16.7709 16.9942 18.2194 15.1993 19.6927C14.6225 19.2238 14.4039 18.5119 14.1407 17.7995C14.1262 17.8888 14.1117 17.9782 14.0703 18.1155C13.992 18.8953 13.9378 19.627 13.8908 20.3592C13.8778 20.5622 13.8859 20.7665 13.8843 20.9702C13.8843 20.9702 13.8817 20.9608 13.8644 20.9651C13.8333 20.9945 13.8194 21.0195 13.8055 21.0445C13.8055 21.0445 13.8043 21.0336 13.7881 21.0389C13.7581 21.069 13.7442 21.0936 13.7303 21.1183C13.7303 21.1183 13.7301 21.1097 13.7065 21.1061C13.5579 21.2384 13.4328 21.3742 13.3076 21.5101C13.3076 21.5101 13.2957 21.5043 13.276 21.5006C13.2456 21.5244 13.2348 21.5519 13.224 21.5794C13.224 21.5794 13.2177 21.5689 13.1997 21.57C13.1694 21.5986 13.1571 21.6262 13.1448 21.6537C13.1448 21.6537 13.1477 21.6413 13.125 21.6392C13.0641 21.6878 13.0259 21.7385 12.9876 21.7892C12.9876 21.7892 12.9844 21.7792 12.9731 21.7847C12.9383 21.7975 12.9209 21.8122 12.9098 21.8342C12.1861 22.3913 11.4624 22.9483 10.7212 23.5188C10.6385 23.3691 10.5802 23.2635 10.5195 23.1096C10.5987 22.7427 10.3545 22.589 10.1815 22.3993C10.1815 22.3993 10.1845 22.3837 10.1995 22.3564C9.83115 20.9526 9.92203 19.5518 10.1054 18.1462C10.063 18.1416 10.0206 18.137 9.97828 18.1323C9.93671 18.1841 9.89515 18.236 9.85359 18.2878C9.17197 19.2216 8.48965 20.155 7.81048 21.0906C7.76963 21.1469 7.75396 21.2214 7.68485 21.3118C7.6095 21.437 7.57587 21.5379 7.54225 21.6387C7.54225 21.6387 7.54032 21.6282 7.51995 21.6372C7.35586 22.1375 7.15383 22.6219 7.09286 23.1233C7.06205 23.3767 7.28646 23.6611 7.39548 23.9314C7.39548 23.9314 7.38851 23.931 7.38713 23.956C7.44608 24.0586 7.50642 24.1362 7.56675 24.2139C7.56675 24.2139 7.55517 24.2266 7.55272 24.2427C7.575 24.2732 7.59973 24.2877 7.62447 24.3021C7.62447 24.3021 7.61306 24.3041 7.61788 24.3195C7.64611 24.3496 7.66951 24.3643 7.69291 24.379C7.69291 24.379 7.68593 24.3787 7.68744 24.4007C7.72132 24.4539 7.7537 24.485 7.78608 24.5162C7.78608 24.5162 7.77382 24.5241 7.77466 24.5392C7.79994 24.5685 7.82438 24.5825 7.84882 24.5966C7.84882 24.5966 7.84987 24.5772 7.84736 24.6088C7.74986 24.7026 7.65147 24.8222 7.5605 24.8169C7.22396 24.7969 6.88986 24.7357 6.55484 24.69C6.55484 24.69 6.56114 24.6987 6.55036 24.6756C6.44343 24.6205 6.34727 24.5884 6.25111 24.5564C6.25111 24.5564 6.24089 24.563 6.2429 24.5345C6.10011 24.4404 5.95532 24.3748 5.81053 24.3092C5.60345 24.0878 5.35102 23.8932 5.20028 23.6385C4.99158 23.286 4.85939 22.8883 4.71408 22.4606C4.72652 22.2061 4.67719 21.9917 4.72024 21.7977C4.83626 21.275 4.99495 20.7619 5.12872 20.2429C5.15578 20.1379 5.14775 20.0239 5.1559 19.914C5.50488 19.2347 5.85386 18.5554 6.24378 17.7964C5.82087 18.0628 5.46928 18.2842 5.11762 18.5056C4.64653 18.8022 4.16348 19.0818 3.70887 19.4018C3.4486 19.585 3.22368 19.8233 3.00237 20.0554C2.71117 20.3607 2.43917 20.6844 2.11814 21.031C2.06291 21.1327 2.04844 21.2036 2.03397 21.2745C2.03397 21.2745 2.02537 21.2647 2.00493 21.2703C1.97053 21.3456 1.95656 21.4152 1.94259 21.4849C1.94259 21.4849 1.9417 21.4781 1.91819 21.4867C1.59097 22.0058 1.70725 22.5574 1.75391 23.0969C1.76518 23.2272 1.88131 23.3485 1.94922 23.4739C2.05944 23.7019 2.16965 23.9299 2.30507 24.1992C2.35345 24.2621 2.37662 24.2837 2.3998 24.3052C2.3998 24.3052 2.38815 24.3011 2.39482 24.3178C2.42632 24.3488 2.45114 24.363 2.47595 24.3773C2.47595 24.3773 2.46552 24.3796 2.4714 24.3949C2.50085 24.4246 2.52443 24.439 2.54801 24.4534C2.54801 24.4534 2.54005 24.4531 2.53935 24.4751C2.57288 24.5255 2.6071 24.554 2.64133 24.5825C2.64133 24.5825 2.64904 24.5741 2.63638 24.6C2.49122 24.6485 2.35872 24.6711 2.22621 24.6938C2.22621 24.6938 2.23348 24.6937 2.22265 24.6723C1.9928 24.5632 1.77377 24.4756 1.55475 24.3881C1.55475 24.3881 1.56357 24.3857 1.55668 24.3673C1.52031 24.3369 1.49083 24.3249 1.46135 24.313C0.766331 23.8036 0.199715 23.2057 0.0800781 22.247C0.104481 22.1061 0.134884 22.0231 0.138528 21.9389C0.163855 21.3538 0.183626 20.7685 0.205178 20.1832C0.187994 20.1659 0.170812 20.1487 0.182314 20.0888C0.336577 19.6736 0.462151 19.3011 0.587724 18.9286C0.587724 18.9286 0.590276 18.9387 0.609029 18.9316C0.641035 18.8779 0.654288 18.8314 0.667541 18.7848C0.667541 18.7848 0.669187 18.7907 0.688033 18.7938C0.723246 18.7481 0.739611 18.6991 0.755975 18.6502ZM14.1889 10.7766C14.2159 10.7887 14.243 10.8008 14.2553 10.8123C14.2553 10.8123 14.2595 10.7982 14.261 10.8429C14.3541 10.9103 14.4472 10.9778 14.6022 11.0449C15.1316 11.2129 15.523 10.9995 15.8978 10.5786C15.9173 10.5313 15.9368 10.4841 15.9577 10.4459C15.9577 10.4459 15.9486 10.4453 15.9921 10.4343C16.0002 10.4074 16.0083 10.3805 16.0228 10.3624C16.0228 10.3624 16.0125 10.359 16.0651 10.3478C16.2889 9.91843 16.2448 9.53224 15.9549 9.26331C15.9549 9.26331 15.9557 9.27708 15.9474 9.23469C15.9254 9.21847 15.9033 9.20225 15.8868 9.18643C15.8868 9.18643 15.8853 9.19189 15.8815 9.14085C15.8477 9.11267 15.8139 9.08449 15.7931 9.04847C15.7931 9.04847 15.7951 9.06349 15.7933 9.01505C15.7654 9.00443 15.7376 8.99381 15.7234 8.98307C15.7234 8.98307 15.7164 8.9948 15.7142 8.9425C15.6684 8.92613 15.6227 8.90976 15.5864 8.89066C15.5864 8.89066 15.5874 8.90036 15.5681 8.85179C15.5357 8.83945 15.5032 8.82712 15.4135 8.80711C14.8482 8.56242 13.9588 8.86373 13.8033 9.63144C13.7943 9.6233 13.7866 9.61192 13.776 9.608C13.7667 9.60454 13.7447 9.60926 13.7447 9.61063C13.7407 9.87094 13.5545 10.1718 13.9084 10.3597C13.9084 10.3597 13.9044 10.3551 13.8838 10.4061C13.9177 10.4368 13.9515 10.4676 13.978 10.5108C13.978 10.5108 13.9671 10.5012 13.9688 10.5478C13.9949 10.5611 14.021 10.5743 14.0344 10.5911C14.0344 10.5911 14.0347 10.5779 14.0395 10.624C14.065 10.6383 14.0906 10.6526 14.1041 10.6686C14.1041 10.6686 14.1048 10.6565 14.1137 10.7008C14.1389 10.7146 14.1641 10.7285 14.1778 10.7432C14.1778 10.7432 14.1791 10.7317 14.1889 10.7766Z" fill="#334155"/>
<path d="M21.1113 27.6787C21.0995 27.6996 21.082 27.7129 21.0216 27.7003C20.4547 27.8008 19.9248 27.9194 19.395 28.038C19.395 28.038 19.3941 28.0329 19.3683 28.0329C19.2606 28.0594 19.1786 28.0859 19.0966 28.1124C19.0966 28.1124 19.0956 28.1073 19.0648 28.1075C18.562 28.1845 18.09 28.2612 17.6187 28.3418C17.6152 28.3424 17.6207 28.3964 17.622 28.4254C16.685 28.5678 15.7496 28.7233 14.8102 28.8477C14.2481 28.9222 13.6795 28.9479 13.0778 28.9662C12.9923 28.9129 12.9433 28.8688 12.8936 28.868C12.3027 28.8589 11.7117 28.8481 11.1209 28.8553C10.8212 28.859 10.5219 28.8985 10.2225 28.9218C9.26101 28.7315 8.28458 28.5954 7.34233 28.3356C6.41489 28.0799 5.51588 27.7148 4.61744 27.3643C4.29553 27.2387 4.01172 27.0157 3.71191 26.7906C4.52195 26.9927 5.24069 26.6258 6.03613 26.4992C6.14154 26.4969 6.20334 26.4788 6.26514 26.4607C6.26514 26.4607 6.26576 26.466 6.29138 26.4661C6.39922 26.4397 6.48144 26.4132 6.56367 26.3867C6.56367 26.3867 6.56445 26.3918 6.59298 26.3917C6.85076 26.3155 7.08001 26.2393 7.30925 26.1632C7.30925 26.1632 7.30975 26.1684 7.3311 26.1669C7.38932 26.1403 7.4262 26.1153 7.46308 26.0904C8.25403 25.7359 9.05598 25.4038 9.83368 25.0224C11.5705 24.1706 13.1342 23.0649 14.5471 21.7438C15.8964 20.4823 17.241 19.2154 18.6109 17.9766C19.7267 16.9676 20.9388 16.0754 22.2979 15.4229C23.1094 15.0333 23.9714 14.742 24.8259 14.4511C25.1427 14.3432 25.5024 14.3559 25.8436 14.3255C26.4683 14.2698 27.095 14.1705 27.7187 14.185C28.6179 14.2059 29.484 14.4177 30.2788 14.9614C30.3476 15.025 30.393 15.0451 30.4383 15.0652C30.4383 15.0652 30.4345 15.0692 30.4421 15.0845C30.4707 15.1135 30.4918 15.1271 30.5128 15.1407C30.5128 15.1407 30.5083 15.1429 30.5207 15.1608C30.5765 15.191 30.6197 15.2033 30.6629 15.2156C30.6629 15.2156 30.6581 15.2176 30.6611 15.2402C30.7135 15.2965 30.763 15.3302 30.8125 15.3639C30.8125 15.3639 30.8078 15.3665 30.815 15.3822C30.8436 15.4118 30.8651 15.4256 30.8866 15.4395C30.8866 15.4395 30.8815 15.4383 30.8773 15.4645C30.7577 15.5437 30.6408 15.5937 30.5272 15.6506C30.3706 15.729 30.2166 15.8126 30.0615 15.894C30.0615 15.894 30.0611 15.8891 30.0358 15.8895C29.9468 15.9187 29.8832 15.9473 29.8196 15.976C29.2311 16.3829 28.5795 16.7236 28.0676 17.2107C27.0764 18.1538 26.6236 19.3664 26.5482 20.7349C26.4798 21.9755 26.7256 23.1222 27.4236 24.1595C28.2322 25.361 29.4303 26.0066 30.7535 26.466C31.1553 26.6055 31.5668 26.7168 31.9664 26.9102C31.1328 27.1514 30.2885 27.0304 29.4122 27.0257C29.2567 26.966 29.1427 26.9193 29.0284 26.9183C28.2347 26.9118 27.4409 26.9186 26.6471 26.9138C25.202 26.905 23.7761 27.0775 22.3621 27.3621C22.2888 27.3768 22.2248 27.4374 22.1564 27.4767C21.9386 27.5163 21.7207 27.556 21.4415 27.5916C21.2906 27.6179 21.201 27.6483 21.1113 27.6787Z" fill="#F4A6B1"/>
<path d="M18.2701 11.7918C18.1051 11.5795 18.0508 11.3643 18.1338 11.0858C18.2045 10.8489 18.1835 10.5842 18.1987 10.3315C18.2141 10.0757 18.2516 9.81728 18.2299 9.56425C18.1993 9.20821 18.1081 8.85759 18.0721 8.50171C18.0503 8.28661 18.0889 8.06595 18.0904 7.84772C18.0911 7.73997 18.0691 7.63207 18.0822 7.49473C18.1243 7.46379 18.1418 7.46236 18.1592 7.46094C18.4468 8.59931 18.3376 9.75843 18.3404 10.9117C18.341 11.1821 18.345 11.4525 18.3261 11.7571C18.3047 11.7912 18.2701 11.7918 18.2701 11.7918Z" fill="#334155"/>
<path d="M22.1885 27.4697C22.2248 27.438 22.2889 27.3774 22.3621 27.3627C23.7761 27.0781 25.202 26.9056 26.6471 26.9144C27.4409 26.9192 28.2347 26.9124 29.0284 26.9189C29.1427 26.9199 29.2567 26.9666 29.3774 27.0201C28.7041 27.0308 28.0242 27.0041 27.3441 26.9977C25.6211 26.9815 23.9185 27.1988 22.1885 27.4697Z" fill="#F4A6B1"/>
<path d="M5.82119 7.69336C5.74414 9.28516 5.67585 10.8775 5.58154 12.4683C5.56555 12.7379 5.43769 13.0009 5.33496 13.2718C5.37818 12.542 5.45904 11.8084 5.51509 11.0728C5.59937 9.96688 5.66628 8.85963 5.76423 7.72312C5.7879 7.6933 5.82119 7.69336 5.82119 7.69336Z" fill="#334155"/>
<path d="M9.89454 18.2866C9.89432 18.2345 9.93589 18.1827 9.97745 18.1309C10.0198 18.1355 10.0622 18.1401 10.1045 18.1447C9.92121 19.5503 9.83032 20.9512 10.2066 22.3547C10.0816 21.8876 9.88046 21.3963 9.86432 20.899C9.83724 20.0645 9.92837 19.2262 9.96747 18.3894C9.96904 18.3558 9.94723 18.3212 9.89454 18.2866Z" fill="#334155"/>
<path d="M13.1239 3.04447C12.6556 3.10045 12.1743 3.13877 11.6923 3.15429C11.4525 3.16202 11.2112 3.12797 10.9658 3.08903C11.6776 3.0493 12.3942 3.03335 13.1239 3.04447Z" fill="#334155"/>
<path d="M13.9111 20.953C13.886 20.7651 13.8779 20.5608 13.8909 20.3578C13.9379 19.6257 13.9921 18.8939 14.0653 18.1445C14.0677 19.0012 14.0502 19.8754 14.0253 20.7494C14.0235 20.8128 13.9682 20.8747 13.9111 20.953Z" fill="#334155"/>
<path d="M7.39078 23.9015C7.28632 23.6606 7.06191 23.3763 7.09272 23.1229C7.15369 22.6214 7.35572 22.137 7.52514 21.6367C7.44413 22.0525 7.28882 22.4724 7.24686 22.9034C7.21615 23.2188 7.33438 23.5486 7.39078 23.9015Z" fill="#334155"/>
<path d="M5.14279 19.9375C5.14743 20.0232 5.15547 20.1372 5.1284 20.2422C4.99463 20.7612 4.83594 21.2743 4.71993 21.797C4.67687 21.991 4.72621 22.2054 4.71176 22.4299C4.51511 21.9003 4.6541 21.3672 4.79419 20.8419C4.87467 20.5401 5.01603 20.2545 5.14279 19.9375Z" fill="#334155"/>
<path d="M10.2539 28.9254C10.5215 28.8991 10.8207 28.8596 11.1204 28.8559C11.7112 28.8486 12.3023 28.8595 12.8932 28.8686C12.9428 28.8694 12.9919 28.9134 13.0447 28.9612C12.1275 28.9662 11.2066 28.9473 10.2539 28.9254Z" fill="#F4A6B1"/>
<path d="M0.174381 20.1816C0.182881 20.7672 0.163111 21.3525 0.137784 21.9377C0.13414 22.0218 0.103737 22.1049 0.0877656 22.2134C0.0678177 21.7145 0.0349948 21.1907 0.030294 20.6667C0.0288441 20.5052 0.104162 20.3431 0.174381 20.1816Z" fill="#334155"/>
<path d="M5.84042 7.6734C5.82143 7.69313 5.78813 7.69308 5.77148 7.69327C5.95847 7.12823 6.1621 6.56301 6.38686 5.98242C6.30812 6.26342 6.20597 6.55904 6.1091 6.85638C6.02284 7.12116 5.94241 7.38784 5.84042 7.6734Z" fill="#334155"/>
<path d="M1.94579 23.4435C1.88103 23.3482 1.7649 23.2269 1.75363 23.0966C1.70697 22.5571 1.59069 22.0055 1.92132 21.4863C1.75769 22.1224 1.70967 22.7675 1.94579 23.4435Z" fill="#334155"/>
<path d="M6.56152 24.7168C6.88952 24.7349 7.22362 24.7961 7.56016 24.8161C7.65114 24.8215 7.74952 24.7018 7.85673 24.6074C7.95918 24.6318 8.04941 24.6883 8.14322 24.747C7.87072 24.9801 7.24228 24.9736 6.56152 24.7168Z" fill="#334155"/>
<path d="M19.4268 28.041C19.925 27.9195 20.4548 27.8009 21.0048 27.7012C20.5028 27.828 19.9806 27.9359 19.4268 28.041Z" fill="#F4A6B1"/>
<path d="M0.565462 18.9414C0.462105 19.2996 0.336532 19.6721 0.18457 20.0509C0.286538 19.69 0.414891 19.3229 0.565462 18.9414Z" fill="#334155"/>
<path d="M17.652 28.4211C17.6201 28.3969 17.6146 28.3429 17.6181 28.3423C18.0894 28.2617 18.5614 28.185 19.0664 28.1094C18.6271 28.2125 18.1548 28.3145 17.652 28.4211Z" fill="#F4A6B1"/>
<path d="M18.2705 11.82C18.2699 11.7911 18.3045 11.7905 18.3218 11.7912C18.4261 12.1898 18.5132 12.5877 18.5972 13.0167C18.4864 12.6481 18.3788 12.2485 18.2705 11.82Z" fill="#334155"/>
<path d="M18.1545 7.43009C18.1415 7.46179 18.124 7.46322 18.0804 7.46603C17.98 7.1622 17.9057 6.85698 17.835 6.52148C17.9424 6.79408 18.0462 7.09695 18.1545 7.43009Z" fill="#334155"/>
<path d="M30.0898 15.8911C30.216 15.812 30.37 15.7284 30.5266 15.6499C30.6402 15.5931 30.7571 15.5431 30.8792 15.4629C30.9359 15.4825 30.986 15.5293 31.0686 15.6064C30.7248 15.7087 30.4218 15.7988 30.0898 15.8911Z" fill="#F4A6B1"/>
<path d="M2.23535 24.7196C2.3586 24.6713 2.49111 24.6487 2.64178 24.6016C2.75303 24.6613 2.84613 24.7456 2.93922 24.8298C2.92109 24.8618 2.90294 24.8938 2.88481 24.9258C2.67141 24.8656 2.45801 24.8054 2.23535 24.7196Z" fill="#334155"/>
<path d="M10.1875 22.4238C10.3537 22.5876 10.5979 22.7413 10.5173 23.0818C10.4103 22.8858 10.3023 22.6678 10.1875 22.4238Z" fill="#334155"/>
<path d="M1.56934 24.4082C1.77343 24.4743 1.99245 24.5619 2.22068 24.6742C2.01468 24.6092 1.79947 24.5194 1.56934 24.4082Z" fill="#334155"/>
<path d="M7.27969 26.1621C7.08016 26.2386 6.85091 26.3148 6.59082 26.3898C6.78997 26.3131 7.01997 26.2374 7.27969 26.1621Z" fill="#F4A6B1"/>
<path d="M13.3301 21.5013C13.4328 21.3745 13.5579 21.2387 13.7107 21.1074C13.6098 21.2388 13.4812 21.3655 13.3301 21.5013Z" fill="#334155"/>
<path d="M5.81934 24.334C5.95509 24.375 6.09988 24.4406 6.23685 24.5329C6.09547 24.4926 5.96192 24.4256 5.81934 24.334Z" fill="#334155"/>
<path d="M18.8582 13.5496C18.7876 13.4656 18.7176 13.3568 18.6514 13.2207C18.7231 13.3039 18.791 13.4143 18.8582 13.5496Z" fill="#334155"/>
<path d="M17.8566 6.46459C17.7931 6.38535 17.7354 6.27901 17.6816 6.14453C17.7445 6.22342 17.8034 6.33046 17.8566 6.46459Z" fill="#334155"/>
<path d="M6.25781 24.5801C6.34711 24.5873 6.44327 24.6194 6.54584 24.6777C6.45639 24.6709 6.36054 24.6379 6.25781 24.5801Z" fill="#334155"/>
<path d="M7.56445 21.6267C7.57523 21.5382 7.60886 21.4373 7.67059 21.334C7.66156 21.4258 7.62443 21.5201 7.56445 21.6267Z" fill="#334155"/>
<path d="M7.55884 24.1889C7.50607 24.1348 7.44573 24.0571 7.3877 23.9512C7.44376 24.0037 7.49752 24.0846 7.55884 24.1889Z" fill="#334155"/>
<path d="M6.74906 5.44727C6.73196 5.51157 6.69505 5.58719 6.62988 5.65152C6.64416 5.57968 6.6867 5.51913 6.74906 5.44727Z" fill="#334155"/>
<path d="M2.05263 21.2638C2.0479 21.2039 2.06237 21.1331 2.09682 21.0508C2.10181 21.1105 2.08682 21.1816 2.05263 21.2638Z" fill="#334155"/>
<path d="M17.5539 5.79231C17.5037 5.76336 17.4477 5.71043 17.3867 5.63281C17.4372 5.66153 17.4926 5.71493 17.5539 5.79231Z" fill="#334155"/>
<path d="M6.58 5.67188C6.56899 5.73348 6.54064 5.80922 6.4834 5.88447C6.49056 5.81798 6.52661 5.752 6.58 5.67188Z" fill="#334155"/>
<path d="M0.743751 18.668C0.739167 18.6989 0.722802 18.7478 0.68457 18.7932C0.685795 18.7551 0.708884 18.7205 0.743751 18.668Z" fill="#334155"/>
<path d="M13.0088 21.7812C13.0256 21.7377 13.0638 21.687 13.1295 21.6426C13.1147 21.6906 13.0725 21.7323 13.0088 21.7812Z" fill="#334155"/>
<path d="M19.124 28.1139C19.1785 28.0848 19.2605 28.0583 19.3705 28.0332C19.3161 28.0619 19.2338 28.0892 19.124 28.1139Z" fill="#F4A6B1"/>
<path d="M21.1396 27.6746C21.2003 27.6478 21.29 27.6175 21.4118 27.5879C21.3522 27.6161 21.2604 27.6435 21.1396 27.6746Z" fill="#F4A6B1"/>
<path d="M6.53641 26.3848C6.48162 26.4122 6.3994 26.4388 6.28906 26.4643C6.34362 26.4368 6.42629 26.4103 6.53641 26.3848Z" fill="#F4A6B1"/>
<path d="M30.8026 15.3451C30.7632 15.3307 30.7137 15.297 30.6621 15.2383C30.7042 15.2507 30.7483 15.2882 30.8026 15.3451Z" fill="#F4A6B1"/>
<path d="M29.8467 15.9745C29.8829 15.9476 29.9465 15.9189 30.0377 15.8906C30.0016 15.9183 29.9379 15.9454 29.8467 15.9745Z" fill="#F4A6B1"/>
<path d="M3.4034 15.959C3.3882 16.0016 3.35227 16.0544 3.28906 16.107C3.30208 16.061 3.34238 16.0151 3.4034 15.959Z" fill="#334155"/>
<path d="M6.23801 26.4609C6.20322 26.479 6.14142 26.497 6.06543 26.4983C6.10449 26.4746 6.15775 26.4678 6.23801 26.4609Z" fill="#F4A6B1"/>
<path d="M1.96066 21.4674C1.95653 21.4152 1.9705 21.3455 2.01082 21.2676C2.01771 21.3229 1.99823 21.3864 1.96066 21.4674Z" fill="#334155"/>
<path d="M17.6882 6.10342C17.666 6.08951 17.6379 6.05176 17.6162 5.98828C17.6425 6.00156 17.6623 6.04057 17.6882 6.10342Z" fill="#334155"/>
<path d="M30.4278 15.0427C30.3931 15.0445 30.3477 15.0244 30.2949 14.9788C30.3307 14.9758 30.3739 14.9983 30.4278 15.0427Z" fill="#F4A6B1"/>
<path d="M0.648829 18.7988C0.653464 18.8311 0.640211 18.8777 0.602969 18.9314C0.596302 18.8968 0.613623 18.8549 0.648829 18.7988Z" fill="#334155"/>
<path d="M6.83726 5.33398C6.83931 5.36818 6.82093 5.40401 6.7805 5.44124C6.77792 5.40696 6.79737 5.37129 6.83726 5.33398Z" fill="#334155"/>
<path d="M3.76521 15.6309C3.75746 15.6709 3.72594 15.7041 3.66895 15.7356C3.67613 15.6972 3.70878 15.6607 3.76521 15.6309Z" fill="#334155"/>
<path d="M3.92733 15.4395C3.93498 15.4735 3.91982 15.5201 3.87912 15.5729C3.87056 15.5367 3.88754 15.4943 3.92733 15.4395Z" fill="#334155"/>
<path d="M7.78348 24.4924C7.75304 24.4842 7.72066 24.4531 7.6875 24.3965C7.71833 24.4038 7.74994 24.4366 7.78348 24.4924Z" fill="#334155"/>
<path d="M2.64077 24.5594C2.60691 24.5535 2.57268 24.5251 2.54004 24.4707C2.57454 24.4755 2.60747 24.5062 2.64077 24.5594Z" fill="#334155"/>
<path d="M7.43896 26.0918C7.42553 26.1152 7.38865 26.1402 7.32812 26.1654C7.34149 26.1416 7.37851 26.1175 7.43896 26.0918Z" fill="#F4A6B1"/>
<path d="M18.657 13.1803C18.6355 13.1676 18.6078 13.1305 18.585 13.0684C18.6102 13.0808 18.6304 13.1183 18.657 13.1803Z" fill="#334155"/>
<path d="M17.6303 5.94423C17.6007 5.93351 17.5684 5.89908 17.542 5.83789C17.5744 5.8476 17.6009 5.88406 17.6303 5.94423Z" fill="#334155"/>
<path d="M30.6506 15.1955C30.6192 15.2033 30.576 15.191 30.5215 15.1585C30.553 15.1507 30.5958 15.163 30.6506 15.1955Z" fill="#F4A6B1"/>
<path d="M6.44938 5.88672C6.46158 5.90729 6.45365 5.93532 6.42363 5.9692C6.41077 5.9481 6.42001 5.92114 6.44938 5.88672Z" fill="#334155"/>
<path d="M13.749 21.1096C13.744 21.0935 13.7579 21.0688 13.7934 21.0391C13.7994 21.0564 13.7837 21.0787 13.749 21.1096Z" fill="#334155"/>
<path d="M2.53993 24.4343C2.52436 24.4391 2.50078 24.4247 2.4707 24.3897C2.48678 24.3845 2.50935 24.3998 2.53993 24.4343Z" fill="#334155"/>
<path d="M7.6857 24.3592C7.66907 24.3641 7.64567 24.3494 7.61719 24.3136C7.63438 24.3081 7.65666 24.3238 7.6857 24.3592Z" fill="#334155"/>
<path d="M2.46743 24.3572C2.4503 24.3628 2.42548 24.3486 2.39648 24.312C2.41478 24.3055 2.43726 24.3214 2.46743 24.3572Z" fill="#334155"/>
<path d="M1.46973 24.3335C1.49061 24.3235 1.52008 24.3354 1.55689 24.3704C1.53559 24.3807 1.50696 24.3681 1.46973 24.3335Z" fill="#334155"/>
<path d="M7.61665 24.2811C7.59962 24.2873 7.57488 24.2729 7.54688 24.2359C7.56539 24.2291 7.58717 24.2448 7.61665 24.2811Z" fill="#334155"/>
<path d="M2.39431 24.2795C2.3762 24.2826 2.35302 24.2611 2.32324 24.2151C2.34084 24.2121 2.36505 24.2335 2.39431 24.2795Z" fill="#334155"/>
<path d="M30.5102 15.1198C30.4912 15.1268 30.4702 15.1132 30.4424 15.0816C30.4598 15.0755 30.4839 15.0873 30.5102 15.1198Z" fill="#F4A6B1"/>
<path d="M12.9288 21.8358C12.9205 21.8113 12.9379 21.7966 12.978 21.7832C12.979 21.7975 12.9636 21.8179 12.9288 21.8358Z" fill="#334155"/>
<path d="M13.166 21.6458C13.1568 21.6246 13.1691 21.5971 13.2055 21.5684C13.2156 21.5912 13.2016 21.6153 13.166 21.6458Z" fill="#334155"/>
<path d="M13.2454 21.5732C13.2343 21.5504 13.2451 21.523 13.2798 21.4941C13.2917 21.518 13.2796 21.5433 13.2454 21.5732Z" fill="#334155"/>
<path d="M7.85473 24.5695C7.82369 24.5812 7.79925 24.5671 7.77148 24.531C7.79921 24.5206 7.83027 24.5322 7.85473 24.5695Z" fill="#334155"/>
<path d="M13.8243 21.0356C13.8191 21.0191 13.833 20.9941 13.8691 20.9648C13.8753 20.9828 13.8593 21.005 13.8243 21.0356Z" fill="#334155"/>
<path d="M4.22854 15.127C4.2342 15.1426 4.22121 15.1708 4.18616 15.2075C4.17935 15.1905 4.19462 15.165 4.22854 15.127Z" fill="#334155"/>
<path d="M3.48356 15.8828C3.48851 15.8989 3.47422 15.9234 3.43862 15.9533C3.43299 15.9363 3.44865 15.9137 3.48356 15.8828Z" fill="#334155"/>
<path d="M3.55835 15.8086C3.5631 15.8239 3.54882 15.848 3.51373 15.8785C3.50839 15.8625 3.52386 15.8399 3.55835 15.8086Z" fill="#334155"/>
<path d="M3.63241 15.7344C3.63736 15.7503 3.62329 15.7745 3.58806 15.8042C3.58239 15.7874 3.59789 15.765 3.63241 15.7344Z" fill="#334155"/>
<path d="M3.84225 15.5664C3.85663 15.5974 3.84279 15.6209 3.80862 15.6505C3.79688 15.624 3.80546 15.5914 3.84225 15.5664Z" fill="#334155"/>
<path d="M30.8807 15.4209C30.8653 15.426 30.8438 15.4121 30.8154 15.3799C30.8306 15.375 30.8527 15.3885 30.8807 15.4209Z" fill="#F4A6B1"/>
<path d="M4.08016 15.2871C4.08434 15.3024 4.06927 15.3266 4.03305 15.3571C4.02824 15.341 4.04458 15.3185 4.08016 15.2871Z" fill="#334155"/>
<path d="M4.15352 15.2109C4.159 15.2277 4.14537 15.2529 4.10982 15.2828C4.1034 15.2648 4.1189 15.2421 4.15352 15.2109Z" fill="#334155"/>
<path d="M13.8281 9.66699C13.9584 8.86354 14.8478 8.56223 15.4528 8.8339C15.5241 8.87397 15.5555 8.88707 15.5869 8.90017C15.5869 8.90017 15.5859 8.89047 15.593 8.91091C15.6387 8.95243 15.6774 8.97352 15.716 8.99461C15.716 8.99461 15.7229 8.98288 15.7213 9.00399C15.7446 9.03783 15.7696 9.05057 15.7946 9.0633C15.7946 9.0633 15.7927 9.04828 15.7931 9.07309C15.824 9.12917 15.8544 9.16043 15.8848 9.1917C15.8848 9.1917 15.8864 9.18624 15.8891 9.20614C15.913 9.24298 15.9341 9.25994 15.9553 9.27689C15.9553 9.27689 15.9545 9.26312 15.9554 9.2954C15.975 9.67139 15.9935 10.0151 16.0121 10.3588C16.0121 10.3588 16.0223 10.3622 15.9975 10.3613C15.9645 10.3886 15.9563 10.4169 15.9481 10.4451C15.9481 10.4451 15.9573 10.4458 15.9359 10.4551C15.8915 10.5083 15.8684 10.5522 15.8453 10.596C15.5225 10.9993 15.1311 11.2127 14.5666 11.0203C14.4407 10.93 14.3499 10.864 14.259 10.7981C14.259 10.7981 14.2549 10.8121 14.2537 10.7927C14.2278 10.7594 14.2032 10.7455 14.1786 10.7316C14.1786 10.7316 14.1774 10.743 14.1745 10.7235C14.1491 10.6881 14.1267 10.6722 14.1043 10.6563C14.1043 10.6563 14.1037 10.6684 14.1016 10.648C14.0778 10.611 14.056 10.5944 14.0343 10.5777C14.0343 10.5777 14.0339 10.5909 14.0331 10.5676C14.0104 10.5299 13.9885 10.5155 13.9666 10.501C13.9666 10.501 13.9775 10.5106 13.9765 10.4832C13.9516 10.4222 13.9278 10.3885 13.904 10.3549C13.904 10.3549 13.908 10.3596 13.9007 10.328C13.8717 10.0867 13.8499 9.87684 13.8281 9.66699Z" fill="#FCF9F6"/>
<path d="M16.0388 10.353C15.994 10.0149 15.9754 9.67119 15.9492 9.29688C16.2448 9.53185 16.2889 9.91805 16.0388 10.353Z" fill="#334155"/>
<path d="M13.8152 9.64802C13.8497 9.87574 13.8714 10.0856 13.9001 10.3239C13.5538 10.1705 13.74 9.86965 13.744 9.60933C13.744 9.60797 13.766 9.60325 13.7753 9.60671C13.7859 9.61063 13.7936 9.62201 13.8152 9.64802Z" fill="#334155"/>
<path d="M14.2598 10.8203C14.3498 10.864 14.4407 10.9299 14.5357 11.0205C14.4467 10.9775 14.3536 10.9101 14.2598 10.8203Z" fill="#334155"/>
<path d="M15.8835 9.16533C15.8549 9.15959 15.8245 9.12833 15.7871 9.07617C15.814 9.08346 15.8478 9.11164 15.8835 9.16533Z" fill="#334155"/>
<path d="M15.7154 8.96858C15.6779 8.97364 15.6393 8.95255 15.5889 8.91239C15.6228 8.90969 15.6685 8.92606 15.7154 8.96858Z" fill="#334155"/>
<path d="M15.8713 10.5878C15.8684 10.5527 15.8915 10.5089 15.9353 10.4512C15.9364 10.4845 15.9169 10.5317 15.8713 10.5878Z" fill="#334155"/>
<path d="M13.8936 10.3809C13.9277 10.389 13.9515 10.4226 13.9801 10.4774C13.9509 10.4678 13.9171 10.4371 13.8936 10.3809Z" fill="#334155"/>
<path d="M15.5773 8.87591C15.5555 8.88709 15.5241 8.87399 15.4814 8.83775C15.5027 8.82695 15.5352 8.83928 15.5773 8.87591Z" fill="#334155"/>
<path d="M15.7941 9.03886C15.77 9.05035 15.745 9.03761 15.7148 9.00383C15.7375 8.9934 15.7654 9.00402 15.7941 9.03886Z" fill="#334155"/>
<path d="M15.9516 9.25541C15.9346 9.25965 15.9134 9.24269 15.8867 9.20564C15.9033 9.20176 15.9253 9.21799 15.9516 9.25541Z" fill="#334155"/>
<path d="M15.9702 10.4401C15.9567 10.4174 15.9648 10.3891 15.9947 10.3574C16.0082 10.3808 16.0001 10.4077 15.9702 10.4401Z" fill="#334155"/>
<path d="M13.9678 10.524C13.9888 10.5152 14.0107 10.5296 14.0398 10.5656C14.0208 10.5738 13.9947 10.5606 13.9678 10.524Z" fill="#334155"/>
<path d="M14.0371 10.601C14.0565 10.5945 14.0782 10.6111 14.1081 10.6473C14.0906 10.6526 14.065 10.6383 14.0371 10.601Z" fill="#334155"/>
<path d="M14.1094 10.6771C14.1273 10.6709 14.1497 10.6867 14.1808 10.7217C14.1643 10.7269 14.1391 10.7131 14.1094 10.6771Z" fill="#334155"/>
<path d="M14.1836 10.7544C14.2033 10.7459 14.2279 10.7598 14.2611 10.7934C14.2426 10.801 14.2155 10.7889 14.1836 10.7544Z" fill="#334155"/>
<ellipse cx="14.9185" cy="9.92859" rx="1.26806" ry="1.26648" fill="#FCF9F6"/>
</g>
<defs>
<clipPath id="clip0_2027_12921">
<rect width="32" height="26" fill="white" transform="translate(0 3)"/>
</clipPath>
</defs>
</svg>
