<svg width="132" height="32" viewBox="0 0 132 32" fill="none" xmlns="http://www.w3.org/2000/svg">
<g clip-path="url(#clip0_2026_6475)">
<path d="M0.802858 18.8544C1.29478 18.202 1.77818 17.5529 2.47289 17.0827C2.83472 16.8378 3.10503 16.4544 3.47029 16.1252C3.56207 16.0602 3.60025 16.0033 3.63842 15.9465C3.63842 15.9465 3.64101 15.9564 3.65858 15.9509C3.69133 15.919 3.70651 15.8927 3.72169 15.8663C3.72169 15.8663 3.72265 15.878 3.73898 15.8709C3.77049 15.838 3.78566 15.8121 3.80083 15.7862C3.80083 15.7862 3.80146 15.7976 3.81836 15.7914C3.85021 15.7591 3.86515 15.733 3.88009 15.7069C3.88009 15.7069 3.87989 15.7158 3.90267 15.7168C3.95894 15.682 3.99243 15.6462 4.02592 15.6104C4.02592 15.6104 4.03716 15.6214 4.05277 15.6199C4.08309 15.5932 4.0978 15.5679 4.11251 15.5426C4.11251 15.5426 4.1058 15.5553 4.12725 15.5444C4.1648 15.4832 4.18091 15.433 4.19702 15.3828C4.1954 15.3563 4.20588 15.3362 4.26822 15.3123C4.32398 15.276 4.33998 15.25 4.35599 15.224C4.35599 15.224 4.3556 15.236 4.37302 15.2302C4.40492 15.1972 4.4194 15.17 4.43389 15.1427C4.43389 15.1427 4.43637 15.1552 4.45358 15.1469C4.4846 15.1082 4.49839 15.0777 4.51219 15.0473C4.95251 14.4497 5.46341 13.8941 5.66075 13.0943C5.77791 12.7714 5.91376 12.4882 5.93075 12.1978C6.03096 10.4846 6.10352 8.76981 6.20556 7.03432C6.31392 6.72678 6.39938 6.43959 6.49103 6.15444C6.59396 5.83424 6.70249 5.51588 6.80858 5.19671C6.80858 5.19671 6.81074 5.20517 6.8299 5.19892C6.85748 5.16249 6.86591 5.13231 6.87433 5.10213C6.87433 5.10213 6.86853 5.11622 6.89377 5.11151C6.94912 5.02522 6.97924 4.94365 7.00936 4.86208C7.00936 4.86208 7.0123 4.85303 7.0431 4.8605C7.11312 4.78653 7.15233 4.7051 7.19155 4.62366C7.19155 4.62366 7.19334 4.6365 7.21073 4.63279C7.24766 4.5905 7.26719 4.55192 7.28673 4.51333C8.00517 3.54214 9.02981 2.97879 10.0674 2.46589C10.5245 2.23995 11.0766 2.21096 11.6211 2.10757C11.9122 2.13889 12.1685 2.17556 12.4234 2.16724C12.9355 2.15052 13.4469 2.10926 13.9585 2.07812C14.826 2.13545 15.606 2.50913 16.4073 2.79477C16.6751 2.89025 16.8989 3.11489 17.1397 3.28503C17.689 3.6732 18.1418 4.15203 18.4723 4.8059C18.5378 4.91944 18.5973 4.97644 18.6568 5.03345C18.6568 5.03345 18.6459 5.04009 18.6388 5.06253C18.666 5.12206 18.7003 5.15915 18.7347 5.19624C18.7347 5.19624 18.725 5.20199 18.7176 5.22404C18.7401 5.28675 18.7701 5.32741 18.8 5.36806C18.8 5.36806 18.7887 5.36755 18.7856 5.39224C18.8438 5.53145 18.9052 5.64597 18.9666 5.76049C18.9666 5.76049 18.9602 5.76787 18.9531 5.79692C19.025 6.15466 19.1039 6.48335 19.1844 6.84234C19.1983 6.98876 19.2217 7.10495 19.2209 7.22099C19.2194 7.45601 19.1783 7.69364 19.2015 7.92528C19.2398 8.30855 19.3367 8.68613 19.3691 9.06956C19.3922 9.34206 19.3523 9.62038 19.336 9.89583C19.3198 10.168 19.3421 10.453 19.2671 10.7082C19.1789 11.008 19.2365 11.2398 19.4125 11.4996C19.5275 11.9611 19.6419 12.3914 19.7563 12.8218C19.7563 12.8218 19.747 12.8252 19.7442 12.8479C19.7709 12.9105 19.8004 12.9505 19.8299 12.9904C19.8299 12.9904 19.8186 12.9896 19.8157 13.0134C19.8872 13.1543 19.9616 13.2715 20.036 13.3887C20.4569 14.2146 21.1818 14.7487 21.8331 15.2478C19.9308 16.8305 18.056 18.3904 16.1489 19.9771C15.536 19.4721 15.3038 18.7054 15.0241 17.9382C15.0087 18.0344 14.9933 18.1307 14.9494 18.2785C14.8661 19.1183 14.8086 19.9063 14.7586 20.6948C14.7448 20.9134 14.7534 21.1334 14.7517 21.3528C14.7517 21.3528 14.749 21.3427 14.7306 21.3474C14.6975 21.379 14.6827 21.4059 14.6679 21.4328C14.6679 21.4328 14.6667 21.4211 14.6495 21.4268C14.6176 21.4592 14.6028 21.4858 14.5881 21.5123C14.5881 21.5123 14.5878 21.5031 14.5628 21.4992C14.4049 21.6416 14.2719 21.7879 14.139 21.9342C14.139 21.9342 14.1263 21.928 14.1054 21.924C14.0731 21.9497 14.0616 21.9793 14.0501 22.0088C14.0501 22.0088 14.0434 21.9976 14.0243 21.9988C13.9921 22.0296 13.9791 22.0592 13.966 22.0889C13.966 22.0889 13.9691 22.0756 13.945 22.0733C13.8803 22.1256 13.8396 22.1802 13.799 22.2349C13.799 22.2349 13.7956 22.2241 13.7836 22.23C13.7466 22.2438 13.7281 22.2596 13.7163 22.2833C12.9474 22.8832 12.1784 23.4831 11.3909 24.0975C11.303 23.9363 11.2411 23.8226 11.1766 23.6567C11.2607 23.2617 11.0012 23.0961 10.8175 22.8918C10.8175 22.8918 10.8207 22.8751 10.8366 22.8457C10.4452 21.3339 10.5418 19.8253 10.7366 18.3116C10.6916 18.3066 10.6466 18.3016 10.6016 18.2967C10.5574 18.3525 10.5132 18.4082 10.4691 18.464C9.74485 19.4697 9.01989 20.4749 8.29827 21.4825C8.25486 21.5431 8.23822 21.6234 8.16479 21.7207C8.08473 21.8556 8.049 21.9642 8.01327 22.0728C8.01327 22.0728 8.01122 22.0615 7.98958 22.0711C7.81523 22.6099 7.60058 23.1315 7.5358 23.6716C7.50307 23.9445 7.7415 24.2507 7.85733 24.5419C7.85733 24.5419 7.84993 24.5414 7.84846 24.5683C7.9111 24.6788 7.9752 24.7624 8.03931 24.846C8.03931 24.846 8.027 24.8597 8.02439 24.877C8.04807 24.9099 8.07435 24.9255 8.10063 24.941C8.10063 24.941 8.08851 24.9432 8.09364 24.9598C8.12363 24.9922 8.14849 25.008 8.17335 25.0238C8.17335 25.0238 8.16594 25.0235 8.16754 25.0472C8.20354 25.1045 8.23794 25.138 8.27234 25.1715C8.27234 25.1715 8.25932 25.1801 8.26021 25.1964C8.28707 25.2279 8.31304 25.243 8.339 25.2582C8.339 25.2582 8.34012 25.2373 8.33745 25.2713C8.23386 25.3723 8.12932 25.5012 8.03267 25.4954C7.67509 25.4739 7.32011 25.408 6.96416 25.3588C6.96416 25.3588 6.97085 25.3682 6.95939 25.3433C6.84578 25.2839 6.74361 25.2494 6.64144 25.2148C6.64144 25.2148 6.63058 25.222 6.63271 25.1913C6.481 25.0899 6.32716 25.0193 6.17332 24.9486C5.9533 24.7102 5.68509 24.5006 5.52493 24.2264C5.30319 23.8467 5.16274 23.4184 5.00835 22.9578C5.02156 22.6838 4.96914 22.4528 5.01489 22.2439C5.13816 21.6811 5.30676 21.1285 5.44889 20.5696C5.47765 20.4565 5.46912 20.3337 5.47778 20.2154C5.84857 19.4839 6.21936 18.7523 6.63365 17.9349C6.18431 18.2217 5.81074 18.4602 5.43711 18.6986C4.93657 19.018 4.42333 19.3192 3.94031 19.6638C3.66378 19.861 3.42479 20.1177 3.18965 20.3676C2.88025 20.6965 2.59125 21.045 2.25016 21.4183C2.19148 21.5278 2.1761 21.6042 2.16073 21.6805C2.16073 21.6805 2.15159 21.67 2.12987 21.676C2.09332 21.7571 2.07847 21.8321 2.06364 21.9071C2.06364 21.9071 2.06269 21.8998 2.03771 21.909C1.69004 22.4681 1.81359 23.0621 1.86316 23.6431C1.87514 23.7835 1.99853 23.9141 2.07068 24.0492C2.18778 24.2947 2.30489 24.5402 2.44878 24.8302C2.50018 24.8979 2.5248 24.9212 2.54942 24.9444C2.54942 24.9444 2.53704 24.9399 2.54414 24.958C2.57759 24.9913 2.60397 25.0066 2.63033 25.022C2.63033 25.022 2.61925 25.0245 2.62549 25.0409C2.65679 25.0729 2.68184 25.0885 2.7069 25.104C2.7069 25.104 2.69844 25.1036 2.6977 25.1273C2.73332 25.1817 2.76968 25.2123 2.80605 25.243C2.80605 25.243 2.81423 25.234 2.80079 25.2618C2.64656 25.3141 2.50577 25.3384 2.36498 25.3628C2.36498 25.3628 2.3727 25.3628 2.3612 25.3397C2.11698 25.2222 1.88426 25.1279 1.65155 25.0336C1.65155 25.0336 1.66093 25.031 1.65361 25.0112C1.61496 24.9785 1.58364 24.9656 1.55232 24.9527C0.81386 24.4042 0.211831 23.7603 0.0847168 22.7278C0.110645 22.5761 0.142948 22.4867 0.14682 22.3961C0.17373 21.7659 0.194736 21.1356 0.217636 20.5053C0.199377 20.4867 0.181121 20.4681 0.193343 20.4036C0.357247 19.9565 0.490669 19.5553 0.624091 19.1541C0.624091 19.1541 0.626802 19.1651 0.646727 19.1574C0.680733 19.0996 0.694815 19.0495 0.708896 18.9993C0.708896 18.9993 0.710645 19.0056 0.730668 19.009C0.768083 18.9598 0.78547 18.9071 0.802858 18.8544ZM15.0753 10.3751C15.1041 10.3881 15.1328 10.4011 15.1459 10.4136C15.1459 10.4136 15.1504 10.3984 15.1519 10.4465C15.2509 10.5191 15.3498 10.5918 15.5144 10.664C16.0769 10.845 16.4928 10.6151 16.8911 10.1618C16.9118 10.111 16.9325 10.0601 16.9547 10.019C16.9547 10.019 16.945 10.0183 16.9912 10.0065C16.9998 9.97751 17.0085 9.94855 17.0238 9.92905C17.0238 9.92905 17.0129 9.92536 17.0688 9.9133C17.3066 9.45092 17.2597 9.03502 16.9517 8.74541C16.9517 8.74541 16.9526 8.76024 16.9438 8.71459C16.9203 8.69711 16.8969 8.67964 16.8794 8.66261C16.8794 8.66261 16.8778 8.66849 16.8737 8.61353C16.8378 8.58318 16.8019 8.55283 16.7798 8.51403C16.7798 8.51403 16.7819 8.53022 16.78 8.47805C16.7504 8.46661 16.7208 8.45517 16.7057 8.44361C16.7057 8.44361 16.6983 8.45624 16.6959 8.39992C16.6473 8.38229 16.5988 8.36466 16.5601 8.34409C16.5601 8.34409 16.5612 8.35454 16.5408 8.30223C16.5063 8.28894 16.4718 8.27566 16.3765 8.25411C15.7759 7.9906 14.8309 8.31509 14.6656 9.14185C14.6561 9.13309 14.6479 9.12083 14.6367 9.11661C14.6268 9.11289 14.6034 9.11797 14.6033 9.11944C14.5991 9.39977 14.4013 9.72378 14.7773 9.92618C14.7773 9.92618 14.7731 9.92118 14.7512 9.9761C14.7872 10.0092 14.8231 10.0423 14.8512 10.0889C14.8512 10.0889 14.8396 10.0785 14.8415 10.1287C14.8692 10.143 14.8969 10.1572 14.9112 10.1753C14.9112 10.1753 14.9115 10.1612 14.9166 10.2107C14.9437 10.2262 14.9709 10.2416 14.9853 10.2588C14.9853 10.2588 14.986 10.2458 14.9955 10.2934C15.0223 10.3084 15.049 10.3233 15.0636 10.3391C15.0636 10.3391 15.0649 10.3268 15.0753 10.3751Z" fill="#334155"/>
<path d="M22.4306 28.5761C22.4181 28.5986 22.3994 28.6129 22.3353 28.5995C21.733 28.7076 21.17 28.8354 20.607 28.9631C20.607 28.9631 20.606 28.9576 20.5787 28.9576C20.4642 28.9861 20.3771 29.0147 20.29 29.0432C20.29 29.0432 20.2889 29.0378 20.2562 29.0379C19.722 29.1209 19.2205 29.2035 18.7197 29.2903C18.7159 29.2909 18.7218 29.349 18.7232 29.3803C17.7276 29.5337 16.7338 29.7011 15.7356 29.8351C15.1384 29.9153 14.5343 29.943 13.8949 29.9627C13.8041 29.9052 13.7521 29.8578 13.6993 29.857C13.0715 29.8472 12.4435 29.8355 11.8157 29.8433C11.4973 29.8473 11.1794 29.8898 10.8612 29.9149C9.83964 29.71 8.80219 29.5634 7.80104 29.2836C6.81564 29.0083 5.86044 28.615 4.90585 28.2376C4.56382 28.1023 4.26227 27.8622 3.94373 27.6198C4.80439 27.8374 5.56805 27.4423 6.4132 27.306C6.52521 27.3034 6.59086 27.284 6.65653 27.2645C6.65653 27.2645 6.65719 27.2702 6.68441 27.2703C6.79898 27.2418 6.88635 27.2133 6.97371 27.1847C6.97371 27.1847 6.97455 27.1902 7.00486 27.1901C7.27875 27.1081 7.52232 27.026 7.7659 26.944C7.7659 26.944 7.76643 26.9497 7.78911 26.948C7.85097 26.9194 7.89015 26.8925 7.92934 26.8656C8.76972 26.4839 9.62179 26.1263 10.4481 25.7155C12.2935 24.7982 13.9549 23.6074 15.4561 22.1847C16.8897 20.8262 18.3184 19.4618 19.7739 18.1277C20.9594 17.0411 22.2473 16.0803 23.6913 15.3776C24.5536 14.958 25.4694 14.6443 26.3773 14.331C26.7139 14.2149 27.0961 14.2285 27.4587 14.1958C28.1224 14.1358 28.7883 14.0289 29.4509 14.0445C30.4063 14.067 31.3266 14.2951 32.171 14.8806C32.2441 14.9491 32.2923 14.9708 32.3406 14.9924C32.3406 14.9924 32.3365 14.9967 32.3446 15.0132C32.375 15.0444 32.3973 15.0591 32.4197 15.0737C32.4197 15.0737 32.4148 15.0761 32.4281 15.0954C32.4873 15.1279 32.5332 15.1411 32.5792 15.1544C32.5792 15.1544 32.574 15.1565 32.5772 15.1808C32.6329 15.2414 32.6855 15.2777 32.7381 15.314C32.7381 15.314 32.7331 15.3169 32.7407 15.3338C32.7712 15.3657 32.794 15.3806 32.8168 15.3955C32.8168 15.3955 32.8114 15.3942 32.807 15.4224C32.6799 15.5077 32.5556 15.5616 32.435 15.6228C32.2686 15.7072 32.1049 15.7973 31.9401 15.8849C31.9401 15.8849 31.9397 15.8797 31.9128 15.8801C31.8183 15.9115 31.7507 15.9424 31.6831 15.9733C31.0579 16.4115 30.3656 16.7784 29.8216 17.303C28.7685 18.3185 28.2874 19.6244 28.2073 21.0982C28.1346 22.4343 28.3958 23.6692 29.1374 24.7863C29.9965 26.0802 31.2695 26.7754 32.6754 27.2702C33.1023 27.4204 33.5396 27.5403 33.9641 27.7486C33.0784 28.0083 32.1813 27.878 31.2503 27.8729C31.085 27.8086 30.964 27.7583 30.8425 27.7573C29.9992 27.7502 29.1557 27.7576 28.3124 27.7524C26.7769 27.743 25.2619 27.9287 23.7596 28.2352C23.6817 28.251 23.6137 28.3163 23.541 28.3586C23.3095 28.4013 23.078 28.4441 22.7815 28.4824C22.6211 28.5107 22.5259 28.5434 22.4306 28.5761Z" fill="#F4A6B1"/>
<path d="M19.4119 11.4668C19.2366 11.2381 19.1789 11.0063 19.2671 10.7065C19.3422 10.4513 19.3199 10.1662 19.336 9.89411C19.3524 9.61866 19.3922 9.34034 19.3692 9.06784C19.3367 8.68441 19.2398 8.30683 19.2015 7.92356C19.1784 7.69192 19.2194 7.45429 19.221 7.21927C19.2217 7.10323 19.1984 6.98704 19.2122 6.83912C19.257 6.80581 19.2756 6.80427 19.2941 6.80273C19.5996 8.02868 19.4836 9.27695 19.4866 10.519C19.4873 10.8102 19.4915 11.1014 19.4714 11.4293C19.4487 11.4661 19.4119 11.4668 19.4119 11.4668Z" fill="#334155"/>
<path d="M23.575 28.3504C23.6136 28.3162 23.6816 28.2509 23.7595 28.2351C25.2618 27.9286 26.7768 27.7429 28.3123 27.7523C29.1556 27.7575 29.9991 27.7501 30.8424 27.7572C30.9638 27.7582 31.0849 27.8085 31.2132 27.8662C30.4978 27.8776 29.7754 27.849 29.0528 27.8421C27.2221 27.8246 25.4131 28.0585 23.575 28.3504Z" fill="#F4A6B1"/>
<path d="M6.18532 7.05469C6.10345 8.76894 6.0309 10.4837 5.93069 12.1969C5.9137 12.4873 5.77785 12.7705 5.6687 13.0622C5.71462 12.2763 5.80054 11.4862 5.86009 10.6941C5.94964 9.50309 6.02073 8.31067 6.1248 7.08674C6.14994 7.05463 6.18532 7.05469 6.18532 7.05469Z" fill="#334155"/>
<path d="M10.5134 18.4627C10.5132 18.4065 10.5574 18.3507 10.6015 18.2949C10.6465 18.2999 10.6915 18.3049 10.7366 18.3099C10.5418 19.8236 10.4452 21.3322 10.845 22.8436C10.7122 22.3407 10.4985 21.8115 10.4813 21.276C10.4526 20.3773 10.5494 19.4745 10.5909 18.5734C10.5926 18.5372 10.5694 18.4999 10.5134 18.4627Z" fill="#334155"/>
<path d="M13.9445 2.04864C13.4469 2.10893 12.9355 2.15019 12.4234 2.16691C12.1685 2.17523 11.9122 2.13856 11.6515 2.09663C12.4078 2.05384 13.1691 2.03667 13.9445 2.04864Z" fill="#334155"/>
<path d="M14.7801 21.3351C14.7534 21.1327 14.7448 20.9127 14.7586 20.6941C14.8086 19.9056 14.8661 19.1176 14.9439 18.3105C14.9464 19.2331 14.9278 20.1746 14.9014 21.1158C14.8995 21.1841 14.8408 21.2507 14.7801 21.3351Z" fill="#334155"/>
<path d="M7.85246 24.5093C7.74148 24.2499 7.50304 23.9437 7.53577 23.6708C7.60055 23.1307 7.81521 22.6091 7.99521 22.0703C7.90915 22.5181 7.74413 22.9703 7.69955 23.4344C7.66692 23.7741 7.79253 24.1293 7.85246 24.5093Z" fill="#334155"/>
<path d="M5.46415 20.2402C5.46909 20.3325 5.47762 20.4553 5.44886 20.5684C5.30673 21.1273 5.13813 21.6799 5.01486 22.2427C4.96911 22.4517 5.02153 22.6826 5.00618 22.9243C4.79725 22.354 4.94492 21.7799 5.09377 21.2142C5.17928 20.8892 5.32947 20.5816 5.46415 20.2402Z" fill="#334155"/>
<path d="M10.895 29.9192C11.1793 29.8908 11.4973 29.8483 11.8157 29.8444C12.4434 29.8365 13.0714 29.8482 13.6992 29.858C13.752 29.8589 13.8041 29.9063 13.8603 29.9578C12.8857 29.9631 11.9073 29.9428 10.895 29.9192Z" fill="#F4A6B1"/>
<path d="M0.185707 20.5039C0.194739 21.1345 0.173733 21.7649 0.146823 22.395C0.142951 22.4857 0.110647 22.5751 0.0936781 22.692C0.0724835 22.1547 0.0376092 21.5906 0.0326147 21.0262C0.0310741 20.8524 0.1111 20.6778 0.185707 20.5039Z" fill="#334155"/>
<path d="M6.20557 7.03395C6.18539 7.0552 6.15001 7.05514 6.13232 7.05534C6.33099 6.44684 6.54736 5.83814 6.78616 5.21289C6.7025 5.51551 6.59397 5.83387 6.49104 6.15407C6.39939 6.43922 6.31393 6.72641 6.20557 7.03395Z" fill="#334155"/>
<path d="M2.06728 24.0159C1.99847 23.9133 1.87508 23.7827 1.86311 23.6423C1.81353 23.0613 1.68999 22.4673 2.04128 21.9082C1.86743 22.5932 1.81641 23.2879 2.06728 24.0159Z" fill="#334155"/>
<path d="M6.97156 25.3873C7.32006 25.4069 7.67503 25.4728 8.03261 25.4942C8.12927 25.5 8.23381 25.3712 8.34771 25.2695C8.45657 25.2958 8.55243 25.3566 8.65211 25.4199C8.36258 25.6709 7.69486 25.6639 6.97156 25.3873Z" fill="#334155"/>
<path d="M20.6406 28.9675C21.17 28.8367 21.7329 28.709 22.3173 28.6016C21.7839 28.7381 21.2291 28.8544 20.6406 28.9675Z" fill="#F4A6B1"/>
<path d="M0.600498 19.168C0.490682 19.5537 0.35726 19.9549 0.195801 20.3628C0.304141 19.9741 0.440517 19.5788 0.600498 19.168Z" fill="#334155"/>
<path d="M18.7556 29.3748C18.7217 29.3487 18.7158 29.2906 18.7196 29.2899C19.2204 29.2031 19.7219 29.1205 20.2584 29.0391C19.7916 29.1501 19.2898 29.2599 18.7556 29.3748Z" fill="#F4A6B1"/>
<path d="M19.4125 11.498C19.4118 11.4669 19.4486 11.4662 19.467 11.4669C19.5778 11.8962 19.6703 12.3248 19.7596 12.7867C19.6419 12.3898 19.5275 11.9595 19.4125 11.498Z" fill="#334155"/>
<path d="M19.2893 6.77147C19.2755 6.8056 19.257 6.80714 19.2106 6.81017C19.1039 6.48297 19.025 6.15427 18.9498 5.79297C19.064 6.08653 19.1743 6.4127 19.2893 6.77147Z" fill="#334155"/>
<path d="M31.9708 15.883C32.1049 15.7978 32.2685 15.7078 32.4349 15.6233C32.5555 15.5621 32.6798 15.5082 32.8095 15.4219C32.8698 15.443 32.923 15.4934 33.0108 15.5764C32.6455 15.6866 32.3236 15.7836 31.9708 15.883Z" fill="#F4A6B1"/>
<path d="M2.37476 25.3888C2.50571 25.3368 2.6465 25.3124 2.80658 25.2617C2.92479 25.3261 3.02371 25.4168 3.12262 25.5075C3.10335 25.542 3.08407 25.5764 3.0648 25.6109C2.83806 25.5461 2.61133 25.4813 2.37476 25.3888Z" fill="#334155"/>
<path d="M10.8247 22.918C11.0013 23.0944 11.2607 23.2599 11.1752 23.6265C11.0614 23.4155 10.9467 23.1807 10.8247 22.918Z" fill="#334155"/>
<path d="M1.66736 25.0566C1.8842 25.1278 2.11692 25.2221 2.35941 25.3431C2.14053 25.2731 1.91188 25.1764 1.66736 25.0566Z" fill="#334155"/>
<path d="M7.73424 26.9434C7.52224 27.0257 7.27867 27.1078 7.00232 27.1886C7.21392 27.106 7.45829 27.0245 7.73424 26.9434Z" fill="#F4A6B1"/>
<path d="M14.1628 21.9242C14.2719 21.7876 14.4049 21.6413 14.5673 21.5C14.46 21.6414 14.3234 21.7779 14.1628 21.9242Z" fill="#334155"/>
<path d="M6.18286 24.9746C6.3271 25.0187 6.48094 25.0894 6.62647 25.1888C6.47625 25.1455 6.33436 25.0733 6.18286 24.9746Z" fill="#334155"/>
<path d="M20.0367 13.3601C19.9616 13.2696 19.8872 13.1524 19.8169 13.0059C19.8931 13.0954 19.9653 13.2144 20.0367 13.3601Z" fill="#334155"/>
<path d="M18.9726 5.72944C18.9052 5.64411 18.8438 5.52959 18.7867 5.38477C18.8535 5.46973 18.9161 5.585 18.9726 5.72944Z" fill="#334155"/>
<path d="M6.64868 25.2402C6.74356 25.248 6.84573 25.2826 6.95471 25.3453C6.85967 25.338 6.75783 25.3025 6.64868 25.2402Z" fill="#334155"/>
<path d="M8.03748 22.0594C8.04893 21.964 8.08466 21.8554 8.15025 21.7441C8.14065 21.843 8.1012 21.9446 8.03748 22.0594Z" fill="#334155"/>
<path d="M8.0312 24.8205C7.97513 24.7622 7.91103 24.6786 7.84937 24.5645C7.90893 24.621 7.96605 24.7081 8.0312 24.8205Z" fill="#334155"/>
<path d="M7.17044 4.63477C7.15228 4.70402 7.11307 4.78546 7.04382 4.85473C7.059 4.77736 7.10419 4.71215 7.17044 4.63477Z" fill="#334155"/>
<path d="M2.1811 21.6669C2.17608 21.6024 2.19145 21.5261 2.22806 21.4375C2.23336 21.5018 2.21743 21.5784 2.1811 21.6669Z" fill="#334155"/>
<path d="M18.6505 5.00575C18.5972 4.97458 18.5377 4.91757 18.4729 4.83398C18.5265 4.86491 18.5854 4.92242 18.6505 5.00575Z" fill="#334155"/>
<path d="M6.99094 4.87695C6.97924 4.9433 6.94913 5.02487 6.88831 5.1059C6.89591 5.0343 6.93422 4.96324 6.99094 4.87695Z" fill="#334155"/>
<path d="M0.790297 18.873C0.785426 18.9064 0.768038 18.9591 0.727417 19.0079C0.728718 18.9669 0.753251 18.9296 0.790297 18.873Z" fill="#334155"/>
<path d="M13.8218 22.2255C13.8396 22.1786 13.8803 22.124 13.9501 22.0762C13.9343 22.1279 13.8894 22.1728 13.8218 22.2255Z" fill="#334155"/>
<path d="M20.3192 29.0459C20.3771 29.0146 20.4642 28.986 20.581 28.959C20.5233 28.9899 20.4359 29.0193 20.3192 29.0459Z" fill="#F4A6B1"/>
<path d="M22.4613 28.5719C22.5258 28.5431 22.6211 28.5104 22.7505 28.4785C22.6871 28.5089 22.5896 28.5384 22.4613 28.5719Z" fill="#F4A6B1"/>
<path d="M6.94457 27.1836C6.88636 27.2132 6.79899 27.2417 6.68176 27.2692C6.73974 27.2396 6.82757 27.2111 6.94457 27.1836Z" fill="#F4A6B1"/>
<path d="M32.7274 15.2927C32.6855 15.2773 32.6329 15.241 32.5781 15.1777C32.6228 15.1911 32.6697 15.2315 32.7274 15.2927Z" fill="#F4A6B1"/>
<path d="M31.7122 15.9711C31.7506 15.9422 31.8182 15.9113 31.9152 15.8809C31.8768 15.9106 31.809 15.9399 31.7122 15.9711Z" fill="#F4A6B1"/>
<path d="M3.61636 15.957C3.60021 16.0029 3.56203 16.0597 3.49487 16.1165C3.5087 16.0669 3.55152 16.0174 3.61636 15.957Z" fill="#334155"/>
<path d="M6.62782 27.2656C6.59086 27.2851 6.5252 27.3045 6.44446 27.3058C6.48596 27.2804 6.54255 27.273 6.62782 27.2656Z" fill="#F4A6B1"/>
<path d="M2.08289 21.887C2.07851 21.8308 2.09335 21.7558 2.1362 21.6719C2.14351 21.7314 2.12281 21.7998 2.08289 21.887Z" fill="#334155"/>
<path d="M18.7935 5.34079C18.77 5.32581 18.7401 5.28516 18.717 5.2168C18.745 5.2311 18.766 5.2731 18.7935 5.34079Z" fill="#334155"/>
<path d="M32.3292 14.9695C32.2923 14.9714 32.2441 14.9498 32.188 14.9007C32.226 14.8975 32.2719 14.9217 32.3292 14.9695Z" fill="#F4A6B1"/>
<path d="M0.689869 19.0137C0.694793 19.0485 0.680712 19.0986 0.641143 19.1565C0.634059 19.1192 0.652462 19.0741 0.689869 19.0137Z" fill="#334155"/>
<path d="M7.26502 4.51367C7.2672 4.5505 7.24766 4.58908 7.20471 4.62917C7.20196 4.59227 7.22264 4.55385 7.26502 4.51367Z" fill="#334155"/>
<path d="M4.00059 15.6016C3.99236 15.6446 3.95887 15.6805 3.89832 15.7143C3.90594 15.673 3.94064 15.6337 4.00059 15.6016Z" fill="#334155"/>
<path d="M4.17279 15.3945C4.18092 15.4312 4.16481 15.4814 4.12156 15.5382C4.11247 15.4992 4.13051 15.4536 4.17279 15.3945Z" fill="#334155"/>
<path d="M8.27032 25.1462C8.23797 25.1374 8.20357 25.1039 8.16833 25.043C8.20109 25.0508 8.23468 25.0862 8.27032 25.1462Z" fill="#334155"/>
<path d="M2.80563 25.2186C2.76966 25.2122 2.73329 25.1816 2.69861 25.123C2.73527 25.1282 2.77025 25.1613 2.80563 25.2186Z" fill="#334155"/>
<path d="M7.90439 26.8672C7.89011 26.8924 7.85093 26.9193 7.78662 26.9465C7.80083 26.9208 7.84015 26.8948 7.90439 26.8672Z" fill="#F4A6B1"/>
<path d="M19.8232 12.9623C19.8004 12.9487 19.7709 12.9088 19.7467 12.8418C19.7735 12.8552 19.795 12.8956 19.8232 12.9623Z" fill="#334155"/>
<path d="M18.7317 5.16921C18.7003 5.15766 18.666 5.12058 18.6379 5.05469C18.6724 5.06515 18.7006 5.1044 18.7317 5.16921Z" fill="#334155"/>
<path d="M32.5665 15.134C32.5332 15.1424 32.4873 15.1292 32.4293 15.0943C32.4628 15.0858 32.5083 15.0991 32.5665 15.134Z" fill="#F4A6B1"/>
<path d="M6.85295 5.10938C6.86592 5.13153 6.85749 5.16171 6.82559 5.1982C6.81193 5.17548 6.82175 5.14644 6.85295 5.10938Z" fill="#334155"/>
<path d="M14.6081 21.5017C14.6028 21.4844 14.6175 21.4578 14.6553 21.4258C14.6616 21.4444 14.6449 21.4685 14.6081 21.5017Z" fill="#334155"/>
<path d="M2.69843 25.0824C2.68189 25.0875 2.65683 25.072 2.62488 25.0343C2.64196 25.0287 2.66594 25.0452 2.69843 25.0824Z" fill="#334155"/>
<path d="M8.16618 25.0014C8.14851 25.0068 8.12365 24.9909 8.09338 24.9523C8.11165 24.9464 8.13532 24.9634 8.16618 25.0014Z" fill="#334155"/>
<path d="M2.62213 24.9994C2.60393 25.0055 2.57756 24.9902 2.54675 24.9507C2.56619 24.9438 2.59008 24.9609 2.62213 24.9994Z" fill="#334155"/>
<path d="M1.5614 24.9763C1.58359 24.9656 1.61491 24.9784 1.65402 25.016C1.63138 25.0272 1.60096 25.0136 1.5614 24.9763Z" fill="#334155"/>
<path d="M8.09245 24.9175C8.07435 24.9242 8.04807 24.9087 8.01831 24.8689C8.03798 24.8615 8.06112 24.8784 8.09245 24.9175Z" fill="#334155"/>
<path d="M2.54402 24.9173C2.52477 24.9206 2.50015 24.8974 2.46851 24.848C2.4872 24.8447 2.51292 24.8677 2.54402 24.9173Z" fill="#334155"/>
<path d="M32.4175 15.0525C32.3974 15.0601 32.375 15.0455 32.3455 15.0115C32.364 15.0048 32.3896 15.0175 32.4175 15.0525Z" fill="#F4A6B1"/>
<path d="M13.7369 22.2852C13.7281 22.2588 13.7466 22.243 13.7891 22.2285C13.7902 22.2439 13.7738 22.2659 13.7369 22.2852Z" fill="#334155"/>
<path d="M13.9888 22.0814C13.979 22.0586 13.9921 22.029 14.0308 21.998C14.0415 22.0227 14.0266 22.0486 13.9888 22.0814Z" fill="#334155"/>
<path d="M14.0735 22.0031C14.0616 21.9786 14.0731 21.949 14.11 21.918C14.1226 21.9437 14.1097 21.9709 14.0735 22.0031Z" fill="#334155"/>
<path d="M8.34602 25.229C8.31304 25.2415 8.28707 25.2264 8.25757 25.1875C8.28703 25.1763 8.32003 25.1888 8.34602 25.229Z" fill="#334155"/>
<path d="M14.6882 21.4219C14.6827 21.4041 14.6975 21.3772 14.7358 21.3457C14.7424 21.365 14.7255 21.3889 14.6882 21.4219Z" fill="#334155"/>
<path d="M4.49239 15.0605C4.49841 15.0774 4.48461 15.1078 4.44736 15.1473C4.44014 15.1289 4.45636 15.1016 4.49239 15.0605Z" fill="#334155"/>
<path d="M3.70128 15.875C3.70654 15.8924 3.69135 15.9187 3.65354 15.951C3.64755 15.9326 3.66419 15.9083 3.70128 15.875Z" fill="#334155"/>
<path d="M3.78057 15.7949C3.78561 15.8114 3.77044 15.8373 3.73315 15.8702C3.72748 15.853 3.74392 15.8286 3.78057 15.7949Z" fill="#334155"/>
<path d="M3.85986 15.7148C3.86512 15.732 3.85018 15.7581 3.81274 15.7901C3.80671 15.7719 3.82319 15.7478 3.85986 15.7148Z" fill="#334155"/>
<path d="M4.08246 15.5332C4.09773 15.5666 4.08302 15.5919 4.04672 15.6237C4.03425 15.5952 4.04336 15.5602 4.08246 15.5332Z" fill="#334155"/>
<path d="M32.8103 15.3753C32.7939 15.3808 32.7711 15.3658 32.741 15.3311C32.7571 15.3258 32.7805 15.3404 32.8103 15.3753Z" fill="#F4A6B1"/>
<path d="M4.33548 15.2324C4.33991 15.2489 4.32391 15.2749 4.28542 15.3078C4.28031 15.2905 4.29767 15.2662 4.33548 15.2324Z" fill="#334155"/>
<path d="M4.41354 15.1504C4.41937 15.1684 4.40489 15.1956 4.36711 15.2278C4.36029 15.2084 4.37676 15.184 4.41354 15.1504Z" fill="#334155"/>
<path d="M14.6925 9.17999C14.8309 8.31473 15.7759 7.99024 16.4188 8.28281C16.4944 8.32597 16.5278 8.34007 16.5612 8.35418C16.5612 8.35418 16.5601 8.34374 16.5677 8.36574C16.6163 8.41046 16.6573 8.43317 16.6983 8.45588C16.6983 8.45588 16.7058 8.44325 16.704 8.46598C16.7288 8.50243 16.7553 8.51614 16.7819 8.52986C16.7819 8.52986 16.7798 8.51368 16.7803 8.54041C16.8131 8.6008 16.8454 8.63446 16.8778 8.66813C16.8778 8.66813 16.8794 8.66225 16.8823 8.68368C16.9077 8.72336 16.9301 8.74162 16.9526 8.75988C16.9526 8.75988 16.9518 8.74505 16.9528 8.77982C16.9735 9.18472 16.9932 9.55486 17.0129 9.925C17.0129 9.925 17.0239 9.9287 16.9975 9.9277C16.9624 9.95712 16.9537 9.98755 16.945 10.018C16.945 10.018 16.9547 10.0187 16.9321 10.0288C16.8848 10.0861 16.8603 10.1333 16.8357 10.1805C16.4928 10.6148 16.0769 10.8447 15.4771 10.6374C15.3433 10.5402 15.2469 10.4691 15.1504 10.3981C15.1504 10.3981 15.1459 10.4132 15.1446 10.3923C15.1172 10.3564 15.0911 10.3414 15.0649 10.3264C15.0649 10.3264 15.0636 10.3388 15.0605 10.3177C15.0336 10.2796 15.0098 10.2625 14.986 10.2454C14.986 10.2454 14.9853 10.2584 14.9831 10.2364C14.9578 10.1966 14.9346 10.1787 14.9115 10.1608C14.9115 10.1608 14.9112 10.1749 14.9103 10.1499C14.8862 10.1093 14.8629 10.0937 14.8397 10.0781C14.8397 10.0781 14.8512 10.0885 14.8501 10.059C14.8237 9.99327 14.7984 9.95705 14.7731 9.92082C14.7731 9.92082 14.7773 9.92582 14.7696 9.89189C14.7388 9.63197 14.7156 9.40598 14.6925 9.17999Z" fill="#FCF9F6"/>
<path d="M17.0409 9.91862C16.9932 9.5545 16.9735 9.18436 16.9457 8.78125C17.2597 9.0343 17.3066 9.45021 17.0409 9.91862Z" fill="#334155"/>
<path d="M14.679 9.16106C14.7156 9.4063 14.7387 9.63229 14.7691 9.88894C14.4012 9.72374 14.5991 9.39973 14.6033 9.1194C14.6033 9.11793 14.6267 9.11285 14.6366 9.11657C14.6478 9.12079 14.656 9.13305 14.679 9.16106Z" fill="#334155"/>
<path d="M15.1511 10.4219C15.2468 10.4689 15.3433 10.5399 15.4443 10.6374C15.3498 10.5912 15.2508 10.5186 15.1511 10.4219Z" fill="#334155"/>
<path d="M16.8757 8.64094C16.8454 8.63476 16.813 8.60109 16.7733 8.54492C16.8019 8.55277 16.8378 8.58311 16.8757 8.64094Z" fill="#334155"/>
<path d="M16.6972 8.428C16.6573 8.43345 16.6163 8.41074 16.5627 8.36749C16.5988 8.36459 16.6474 8.38221 16.6972 8.428Z" fill="#334155"/>
<path d="M16.8634 10.1705C16.8603 10.1328 16.8849 10.0856 16.9313 10.0234C16.9325 10.0593 16.9118 10.1102 16.8634 10.1705Z" fill="#334155"/>
<path d="M14.7621 9.94727C14.7983 9.95603 14.8237 9.99225 14.854 10.0513C14.8231 10.0409 14.7871 10.0078 14.7621 9.94727Z" fill="#334155"/>
<path d="M16.5509 8.32835C16.5278 8.3404 16.4944 8.32629 16.4491 8.28726C16.4717 8.27563 16.5062 8.28891 16.5509 8.32835Z" fill="#334155"/>
<path d="M16.7809 8.50279C16.7553 8.51516 16.7287 8.50144 16.6967 8.46506C16.7208 8.45383 16.7504 8.46527 16.7809 8.50279Z" fill="#334155"/>
<path d="M16.9482 8.73584C16.9301 8.7404 16.9076 8.72215 16.8793 8.68224C16.8968 8.67807 16.9203 8.69554 16.9482 8.73584Z" fill="#334155"/>
<path d="M16.968 10.0109C16.9536 9.98645 16.9623 9.95603 16.9941 9.92188C17.0084 9.9471 16.9998 9.97606 16.968 10.0109Z" fill="#334155"/>
<path d="M14.8406 10.1023C14.8629 10.0928 14.8862 10.1084 14.9171 10.1471C14.8969 10.156 14.8692 10.1417 14.8406 10.1023Z" fill="#334155"/>
<path d="M14.9141 10.185C14.9346 10.1781 14.9577 10.196 14.9894 10.235C14.9709 10.2407 14.9437 10.2253 14.9141 10.185Z" fill="#334155"/>
<path d="M14.9907 10.269C15.0098 10.2623 15.0336 10.2794 15.0666 10.317C15.049 10.3227 15.0223 10.3078 14.9907 10.269Z" fill="#334155"/>
<path d="M15.0701 10.3503C15.091 10.3411 15.1171 10.3561 15.1524 10.3923C15.1327 10.4005 15.104 10.3874 15.0701 10.3503Z" fill="#334155"/>
<ellipse cx="15.8509" cy="9.46155" rx="1.34732" ry="1.3639" fill="#FCF9F6"/>
</g>
<path d="M43.12 22V10.48H47.984C48.096 10.48 48.2453 10.4853 48.432 10.496C48.624 10.5013 48.7947 10.5173 48.944 10.544C49.632 10.6507 50.1947 10.8773 50.632 11.224C51.0747 11.5707 51.4 12.008 51.608 12.536C51.816 13.0587 51.92 13.6427 51.92 14.288C51.92 15.2533 51.68 16.08 51.2 16.768C50.72 17.4507 49.968 17.872 48.944 18.032L47.984 18.096H45.296V22H43.12ZM49.616 22L47.344 17.312L49.584 16.88L52.08 22H49.616ZM45.296 16.064H47.888C48 16.064 48.1227 16.0587 48.256 16.048C48.3893 16.0373 48.512 16.016 48.624 15.984C48.9173 15.904 49.144 15.7707 49.304 15.584C49.464 15.392 49.5733 15.1813 49.632 14.952C49.696 14.7173 49.728 14.496 49.728 14.288C49.728 14.08 49.696 13.8613 49.632 13.632C49.5733 13.3973 49.464 13.1867 49.304 13C49.144 12.808 48.9173 12.672 48.624 12.592C48.512 12.56 48.3893 12.5387 48.256 12.528C48.1227 12.5173 48 12.512 47.888 12.512H45.296V16.064ZM53.9988 22V10.48H56.1748V22H53.9988ZM58.5731 22V10.48H63.4371C63.5491 10.48 63.6985 10.4853 63.8851 10.496C64.0771 10.5013 64.2478 10.5173 64.3971 10.544C65.0851 10.6507 65.6478 10.8773 66.0851 11.224C66.5278 11.5707 66.8531 12.008 67.0611 12.536C67.2691 13.0587 67.3731 13.6427 67.3731 14.288C67.3731 14.9333 67.2665 15.52 67.0531 16.048C66.8451 16.5707 66.5198 17.0053 66.0771 17.352C65.6398 17.6987 65.0798 17.9253 64.3971 18.032C64.2478 18.0533 64.0771 18.0693 63.8851 18.08C63.6931 18.0907 63.5438 18.096 63.4371 18.096H60.7491V22H58.5731ZM60.7491 16.064H63.3411C63.4531 16.064 63.5758 16.0587 63.7091 16.048C63.8425 16.0373 63.9651 16.016 64.0771 15.984C64.3705 15.904 64.5971 15.7707 64.7571 15.584C64.9171 15.392 65.0265 15.1813 65.0851 14.952C65.1491 14.7173 65.1811 14.496 65.1811 14.288C65.1811 14.08 65.1491 13.8613 65.0851 13.632C65.0265 13.3973 64.9171 13.1867 64.7571 13C64.5971 12.808 64.3705 12.672 64.0771 12.592C63.9651 12.56 63.8425 12.5387 63.7091 12.528C63.5758 12.5173 63.4531 12.512 63.3411 12.512H60.7491V16.064ZM68.9794 22V10.48H73.8434C73.9554 10.48 74.1047 10.4853 74.2914 10.496C74.4834 10.5013 74.654 10.5173 74.8034 10.544C75.4914 10.6507 76.054 10.8773 76.4914 11.224C76.934 11.5707 77.2594 12.008 77.4674 12.536C77.6754 13.0587 77.7794 13.6427 77.7794 14.288C77.7794 14.9333 77.6727 15.52 77.4594 16.048C77.2514 16.5707 76.926 17.0053 76.4834 17.352C76.046 17.6987 75.486 17.9253 74.8034 18.032C74.654 18.0533 74.4834 18.0693 74.2914 18.08C74.0994 18.0907 73.95 18.096 73.8434 18.096H71.1554V22H68.9794ZM71.1554 16.064H73.7474C73.8594 16.064 73.982 16.0587 74.1154 16.048C74.2487 16.0373 74.3714 16.016 74.4834 15.984C74.7767 15.904 75.0034 15.7707 75.1634 15.584C75.3234 15.392 75.4327 15.1813 75.4914 14.952C75.5554 14.7173 75.5874 14.496 75.5874 14.288C75.5874 14.08 75.5554 13.8613 75.4914 13.632C75.4327 13.3973 75.3234 13.1867 75.1634 13C75.0034 12.808 74.7767 12.672 74.4834 12.592C74.3714 12.56 74.2487 12.5387 74.1154 12.528C73.982 12.5173 73.8594 12.512 73.7474 12.512H71.1554V16.064ZM79.5456 22V10.48H81.7216V19.968H86.6816V22H79.5456ZM88.0419 22V10.48H95.5619V12.512H90.2179V14.976H94.6019V17.008H90.2179V19.968H95.5619V22H88.0419ZM100.151 22V12.512H96.5194V10.48H105.959V12.512H102.327V22H100.151ZM107.405 22V10.48H109.581V22H107.405ZM111.979 22V10.48H115.707C115.798 10.48 115.985 10.4827 116.267 10.488C116.55 10.4933 116.822 10.512 117.083 10.544C118.011 10.656 118.798 10.9787 119.443 11.512C120.089 12.0453 120.579 12.7227 120.915 13.544C121.251 14.3653 121.419 15.264 121.419 16.24C121.419 17.216 121.251 18.1147 120.915 18.936C120.579 19.7573 120.089 20.4347 119.443 20.968C118.798 21.5013 118.011 21.824 117.083 21.936C116.822 21.968 116.55 21.9867 116.267 21.992C115.985 21.9973 115.798 22 115.707 22H111.979ZM114.187 19.952H115.707C115.851 19.952 116.046 19.9493 116.291 19.944C116.537 19.9333 116.758 19.9093 116.955 19.872C117.457 19.7707 117.865 19.536 118.179 19.168C118.499 18.8 118.734 18.3573 118.883 17.84C119.038 17.3227 119.115 16.7893 119.115 16.24C119.115 15.664 119.035 15.1173 118.875 14.6C118.721 14.0827 118.483 13.6453 118.163 13.288C117.843 12.9307 117.441 12.704 116.955 12.608C116.758 12.5653 116.537 12.5413 116.291 12.536C116.046 12.5307 115.851 12.528 115.707 12.528H114.187V19.952ZM123.339 22V10.48H130.859V12.512H125.515V14.976H129.899V17.008H125.515V19.968H130.859V22H123.339Z" fill="#334155"/>
<defs>
<clipPath id="clip0_2026_6475">
<rect width="34" height="28" fill="white" transform="translate(0 2)"/>
</clipPath>
</defs>
</svg>
