<svg id="visual" viewBox="0 0 900 600" width="900" height="600" xmlns="http://www.w3.org/2000/svg" xmlns:xlink="http://www.w3.org/1999/xlink" version="1.1"><rect x="0" y="0" width="900" height="600" fill="#334155"></rect><path d="M0 389L30 379.5C60 370 120 351 180 349.2C240 347.3 300 362.7 360 375.8C420 389 480 400 540 400.3C600 400.7 660 390.3 720 384.8C780 379.3 840 378.7 870 378.3L900 378L900 601L870 601C840 601 780 601 720 601C660 601 600 601 540 601C480 601 420 601 360 601C300 601 240 601 180 601C120 601 60 601 30 601L0 601Z" fill="#f4a6b1"></path><path d="M0 493L30 483.5C60 474 120 455 180 445.3C240 435.7 300 435.3 360 441C420 446.7 480 458.3 540 454.3C600 450.3 660 430.7 720 420.8C780 411 840 411 870 411L900 411L900 601L870 601C840 601 780 601 720 601C660 601 600 601 540 601C480 601 420 601 360 601C300 601 240 601 180 601C120 601 60 601 30 601L0 601Z" fill="#e47082"></path><path d="M0 510L30 511.3C60 512.7 120 515.3 180 521.5C240 527.7 300 537.3 360 531.5C420 525.7 480 504.3 540 491C600 477.7 660 472.3 720 474.7C780 477 840 487 870 492L900 497L900 601L870 601C840 601 780 601 720 601C660 601 600 601 540 601C480 601 420 601 360 601C300 601 240 601 180 601C120 601 60 601 30 601L0 601Z" fill="#cf2f55"></path></svg>